<?xml version="1.0" encoding="UTF-8"?>
<svg width="157px" height="23px" viewBox="0 0 157 23" version="1.1" xmlns="http://www.w3.org/2000/svg" xmlns:xlink="http://www.w3.org/1999/xlink">
    <!-- Generator: Sketch 50.2 (55047) - http://www.bohemiancoding.com/sketch -->
    <title>logo-black</title>
    <desc>Created with Sketch.</desc>
    <defs></defs>
    <g id="Symbols" stroke="none" stroke-width="1" fill="none" fill-rule="evenodd" opacity="0.4984375">
        <g id="logo-black" fill="#000000" fill-rule="nonzero">
            <path d="M38.8790742,16.952288 L40.1162771,15.4726246 C41.2365842,16.4475177 42.3564181,17.002451 43.8110379,17.002451 C45.0817478,17.002451 45.8844958,16.4138219 45.8844958,15.5226923 L45.8844958,15.4889966 C45.8844958,14.6489818 45.4160605,14.1942792 43.2425549,13.6904607 C40.7513955,13.0853645 39.3470362,12.3455803 39.3470362,10.1762005 L39.3470362,10.1425048 C39.3470362,8.12523187 41.0190728,6.72933195 43.3430759,6.72933195 C45.0482408,6.72933195 46.4027183,7.25047427 47.5896607,8.20909057 L46.4861071,9.77251751 C45.432814,8.98257047 44.3796155,8.56251548 43.3095689,8.56251548 C42.1058729,8.56251548 41.4037406,9.18398364 41.4037406,9.95746354 L41.4037406,9.9912545 C41.4037406,10.8996127 41.9387166,11.3032005 44.1789522,11.84081 C46.6532634,12.445811 47.9407269,13.3369406 47.9407269,15.2876786 L47.9407269,15.3213743 C47.9407269,17.5235933 46.2188084,18.8356345 43.7612506,18.8356345 C41.9722236,18.8356345 40.2834335,18.2133097 38.8790742,16.952288" id="Fill-53"></path>
            <path d="M49.2910017,15.4389098 L49.2910017,9.78982229 L51.3141991,9.78982229 L51.3141991,14.8339088 C51.3141991,16.2124849 51.999578,17.0024319 53.2032739,17.0024319 C54.3738415,17.0024319 55.1928697,16.1786939 55.1928697,14.800213 L55.1928697,9.78982229 L57.2160671,9.78982229 L57.2160671,18.6670414 L55.1928697,18.6670414 L55.1928697,17.7517346 C54.4819347,18.4389762 53.8052639,18.8519874 52.4345063,18.8519874 C50.4448158,18.8519874 49.2910017,17.5072023 49.2910017,15.4389098" id="Fill-55"></path>
            <path d="M59.3786025,9.78983181 L61.4017999,9.78983181 L61.4017999,11.2694952 C61.9531508,9.94108206 62.9733155,9.55386618 64.5280777,9.62125774 L64.5280777,11.4252192 L64.4111818,11.4252192 C62.6389082,11.4252192 61.4017999,12.6164696 61.4017999,15.2876691 L61.4017999,18.6670509 L59.3786025,18.6670509 L59.3786025,9.78983181 Z" id="Fill-57"></path>
            <polygon id="Fill-59" points="65.2506171 9.78983181 67.423744 9.78983181 69.7980076 15.9670102 72.1890247 9.78983181 74.3122698 9.78983181 70.7008979 18.7344425 68.8783638 18.7344425"></polygon>
            <path d="M80.8635865,13.6065829 C80.7299371,12.2945417 79.9606962,11.2694857 78.6234455,11.2694857 C77.3857693,11.2694857 76.5164807,12.2271502 76.3325708,13.6065829 L80.8635865,13.6065829 Z M74.3266002,14.2617469 L74.3266002,14.2280511 C74.3266002,11.6895407 76.1155326,9.60487626 78.6397258,9.60487626 C81.4489176,9.60487626 82.8700304,11.824419 82.8700304,14.3793013 C82.8700304,14.5642474 82.8532769,14.7491934 82.8365234,14.9514632 L76.3493243,14.9514632 C76.5667411,16.3974309 77.5864326,17.2047018 78.8906496,17.2047018 C79.8769287,17.2047018 80.5795343,16.8347145 81.2816666,16.1449981 L82.4686091,17.2047018 C81.6328274,18.2132906 80.4790133,18.8684546 78.8571426,18.8684546 C76.2994424,18.8684546 74.3266002,17.0024319 74.3266002,14.2617469 Z" id="Fill-61"></path>
            <polygon id="Fill-63" points="93.5919355 6.8978965 95.781816 6.8978965 99.343022 12.9017415 102.904133 6.8978965 105.094487 6.8978965 105.094487 18.6670509 103.038256 18.6670509 103.038256 10.2272106 99.343022 16.2137318 99.2763866 16.2137318 95.6146596 10.2600497 95.6146596 18.6670509 93.5919355 18.6670509"></polygon>
            <path d="M113.933101,14.2790231 L113.933101,14.2453273 C113.933101,12.6818052 112.812794,11.3870878 111.224524,11.3870878 C109.602748,11.3870878 108.566209,12.6644814 108.566209,14.2116315 L108.566209,14.2453273 C108.566209,15.7923823 109.686516,17.1035668 111.258031,17.1035668 C112.896561,17.1035668 113.933101,15.8088494 113.933101,14.2790231 M106.543485,14.2790231 L106.543485,14.2453273 C106.543485,11.7059603 108.549455,9.60492385 111.258031,9.60492385 C113.966608,9.60492385 115.956298,11.6731211 115.956298,14.2116315 L115.956298,14.2453273 C115.956298,16.7673706 113.949381,18.868407 111.224524,18.868407 C108.532702,18.868407 106.543485,16.8010663 106.543485,14.2790231" id="Fill-65"></path>
            <polygon id="Fill-67" points="127.272157 6.39314519 129.295355 6.39314519 129.295355 13.724166 132.956608 9.78985085 135.414639 9.78985085 131.903788 13.4043416 135.531535 18.6670699 133.191252 18.6670699 130.532936 14.8339373 129.295355 16.1286547 129.295355 18.6670699 127.272157 18.6670699"></polygon>
            <path d="M141.904176,13.6065829 C141.771,12.2945417 141.001759,11.2694857 139.664414,11.2694857 C138.426832,11.2694857 137.557922,12.2271502 137.374013,13.6065829 L141.904176,13.6065829 Z M135.36719,14.2617469 L135.36719,14.2280511 C135.36719,11.6895407 137.156501,9.60487626 139.680789,9.60487626 C142.489507,9.60487626 143.910999,11.824419 143.910999,14.3793013 C143.910999,14.5642474 143.893867,14.7491934 143.877492,14.9514632 L137.390293,14.9514632 C137.60771,16.3974309 138.627874,17.2047018 139.931713,17.2047018 C140.91837,17.2047018 141.620503,16.8347145 142.32273,16.1449981 L143.509672,17.2047018 C142.673417,18.2132906 141.519982,18.8684546 139.898206,18.8684546 C137.340411,18.8684546 135.36719,17.0024319 135.36719,14.2617469 Z" id="Fill-69"></path>
            <polygon id="Fill-71" points="89.9752252 9.78983181 87.5325279 15.8433638 85.1049749 9.78983181 82.9984833 9.78983181 86.4760166 18.4616399 84.6605814 22.9605973 86.7671677 22.9605973 92.0817168 9.78983181"></polygon>
            <path d="M155.372055,9.71337807 C155.614838,9.71337807 155.853457,9.77772367 156.083274,9.9036545 C156.316687,10.0270153 156.499745,10.2085347 156.628188,10.4426917 C156.758619,10.6748499 156.823646,10.9179545 156.823646,11.1746706 C156.823646,11.4251045 156.758619,11.6666861 156.629703,11.8982732 C156.501259,12.1304314 156.322461,12.3097614 156.092076,12.4399756 C155.86491,12.5669535 155.624209,12.6312991 155.372055,12.6312991 C155.123024,12.6312991 154.88024,12.5669535 154.64891,12.4399756 C154.417011,12.3097614 154.239632,12.1304314 154.110242,11.8982732 C153.983408,11.6666861 153.919423,11.4251045 153.919423,11.1746706 C153.919423,10.9179545 153.983408,10.6748499 154.115448,10.4426917 C154.247015,10.2085347 154.424772,10.0270153 154.657712,9.9036545 C154.889611,9.77772367 155.127662,9.71337807 155.372055,9.71337807 M155.372055,9.95486447 C155.1677,9.95486447 154.969119,10.0076926 154.777826,10.1117307 C154.582274,10.2178629 154.431493,10.3679709 154.321317,10.5618644 C154.21578,10.7589942 154.160124,10.9634533 154.160124,11.1746706 C154.160124,11.3827468 154.212656,11.5851118 154.319708,11.7791005 C154.428369,11.970424 154.576595,12.122055 154.771579,12.2287583 C154.962399,12.3359375 155.164103,12.3897175 155.372055,12.3897175 C155.582089,12.3897175 155.781711,12.3359375 155.973571,12.2287583 C156.166473,12.122055 156.315172,11.970424 156.422319,11.7791005 C156.527289,11.5851118 156.580862,11.3827468 156.580862,11.1746706 C156.580862,10.9634533 156.527289,10.7589942 156.418628,10.5618644 C156.311481,10.3679709 156.161835,10.2178629 155.965715,10.1117307 C155.772435,10.0076926 155.572813,9.95486447 155.372055,9.95486447" id="Fill-73"></path>
            <path d="M155.460375,11.1652853 C155.664824,11.1652853 155.794877,11.0578205 155.794877,10.8919117 L155.794877,10.8872476 C155.794877,10.7120105 155.669462,10.6162536 155.458009,10.6162536 L155.042106,10.6162536 L155.042106,11.1652853 L155.460375,11.1652853 Z M154.75635,10.3544926 L155.481293,10.3544926 C155.685743,10.3544926 155.846084,10.4153163 155.95058,10.5180218 C156.03662,10.6068302 156.08546,10.7283824 156.08546,10.8709708 L156.08546,10.8756349 C156.08546,11.1443444 155.925024,11.305494 155.699657,11.3709818 L156.138844,11.9901655 L155.799515,11.9901655 L155.399987,11.4200025 L155.042106,11.4200025 L155.042106,11.9901655 L154.75635,11.9901655 L154.75635,10.3544926 Z" id="Fill-75"></path>
            <polygon id="Fill-77" points="151.01732 9.78983181 148.574623 15.8433638 146.14707 9.78983181 144.040578 9.78983181 147.518111 18.4616399 145.702771 22.9605973 147.809263 22.9605973 153.123812 9.78983181"></polygon>
            <path d="M125.209736,13.0180015 L125.209736,18.667089 L123.186538,18.667089 L123.186538,13.6230025 C123.186538,12.2444264 122.50116,11.4544793 121.297464,11.4544793 C120.126896,11.4544793 119.307868,12.2782173 119.307868,13.6566983 L119.307868,18.667089 L117.28467,18.667089 L117.28467,9.78986988 L119.307868,9.78986988 L119.307868,10.7051766 C120.018803,10.0179351 120.695474,9.60492385 122.066231,9.60492385 C124.055922,9.60492385 125.209736,10.949709 125.209736,13.0180015" id="Fill-79"></path>
            <path d="M26.1292041,16.3747198 C25.8646503,16.3747198 25.623665,16.2723951 25.4421215,16.1093418 C25.5038349,15.5740168 25.5452927,15.0323144 25.5518238,14.48195 C25.7175603,14.3706778 25.9161413,14.3029055 26.1292041,14.3029055 C26.6952261,14.3029055 27.1585501,14.7682689 27.1585501,15.3410019 C27.1585501,15.9159242 26.6952261,16.3747198 26.1292041,16.3747198 M3.42329734,16.3747198 C2.85718068,16.3747198 2.39385664,15.9159242 2.39385664,15.3410019 C2.39385664,14.7682689 2.85718068,14.3029055 3.42329734,14.3029055 C3.63626549,14.3029055 3.83494111,14.3706778 4.000583,14.48195 C4.00711402,15.0323144 4.04866647,15.5740168 4.11037991,16.1093418 C3.9288364,16.2723951 3.68785111,16.3747198 3.42329734,16.3747198 M26.0620008,11.8290263 C25.7723641,11.8290263 25.4937071,11.8682428 25.2268817,11.9336355 C24.2012271,7.85330532 20.8682282,4.69589679 16.7048429,3.9491641 C16.519324,3.91537314 16.3513158,3.89062483 16.162484,3.86673319 C16.1936247,2.84453277 16.2411403,1.6629913 17.7365553,0.599670608 L17.499924,0 C17.499924,0 14.5858572,0.910737838 14.248137,3.41850321 C14.1028454,2.73611613 12.7438247,1.88248978 12.0710346,1.72048353 L11.736438,2.26313784 C11.736438,2.26313784 12.628254,2.71184375 12.8456708,3.94954485 L12.8453868,3.94954485 L12.8456708,3.94954485 C8.68313734,4.69694383 5.35108502,7.85397162 4.32552507,11.9336355 C4.05869964,11.8682428 3.7801373,11.8290263 3.49050062,11.8290263 C1.56640439,11.8290263 0,13.400544 0,15.3414779 C0,17.2778428 1.56640439,18.8523113 3.49050062,18.8523113 C3.94123588,18.8523113 4.37076897,18.76198 4.76584855,18.6067319 C5.06693818,19.3590806 5.44687336,20.0726886 5.90006958,20.7288044 L8.79738292,18.7643596 L8.77277326,18.7319013 C8.00627724,17.7413977 7.53774731,16.2834367 7.45909107,14.8321386 C7.37210542,13.2312084 7.76065397,11.6410343 8.77684332,10.7064048 C10.8731125,8.91243784 13.1544273,9.73008395 14.5840588,11.4499012 L14.968348,11.4499012 C16.3980741,9.73008395 18.6792943,8.91243784 20.7755634,10.7064048 C21.7917528,11.6410343 22.1803013,13.2312084 22.0934103,14.8321386 C22.0147541,16.2834367 21.5462242,17.7413977 20.7797282,18.7319013 L20.7550238,18.7643596 L23.6524318,20.7288044 C24.1056281,20.0726886 24.4855632,19.3590806 24.7866529,18.6067319 C25.1817324,18.76198 25.6112655,18.8523113 26.0620008,18.8523113 C27.9860024,18.8523113 29.5524068,17.2778428 29.5524068,15.3414779 C29.5524068,13.400544 27.9860024,11.8290263 26.0620008,11.8290263" id="Fill-81-Copy"></path>
        </g>
    </g>
</svg>